<svg width="24" height="24" viewBox="0 0 24 24" fill="none" xmlns="http://www.w3.org/2000/svg">
<path d="M12 0C17.8361 4.85468e-06 22.5671 4.73606 22.5672 10.5782V13.4218C22.5672 19.264 17.8361 24 12 24C6.16398 24 1.43286 19.264 1.43286 13.4218V10.5782C1.4329 4.73608 6.16401 3.21663e-05 12 0Z" fill="black"/>
<path d="M12.0001 3.62787C12.134 3.62787 12.2669 3.63202 12.3989 3.63948V20.3446C12.2669 20.352 12.134 20.3563 12.0001 20.3563C8.16093 20.3563 5.04869 17.2484 5.04869 13.4146V10.5696C5.0487 6.73578 8.16093 3.62789 12.0001 3.62787Z" fill="white"/>
<path fill-rule="evenodd" clip-rule="evenodd" d="M12 0C17.8361 1.84285e-06 22.5671 4.73606 22.5672 10.5782V13.4218C22.5672 19.264 17.8361 24 12 24C6.16398 24 1.43286 19.264 1.43286 13.4218V10.5782C1.4329 4.73608 6.16401 3.21663e-05 12 0ZM12.0001 0.8966C6.65042 0.896613 2.31361 5.22738 2.31359 10.5696V13.4146C2.31359 18.7568 6.65042 23.0876 12.0001 23.0876C12.1337 23.0876 12.2667 23.0848 12.3989 23.0795C12.4033 23.0793 12.4077 23.0789 12.4121 23.0787C12.4778 23.0759 12.5432 23.0726 12.6085 23.0685C12.6099 23.0684 12.6113 23.0684 12.6127 23.0684C12.6783 23.0643 12.7438 23.0595 12.809 23.0541C12.8165 23.0535 12.824 23.0528 12.8315 23.0522C13.0324 23.0351 13.2315 23.0119 13.4287 22.9828C13.439 22.9813 13.4493 22.9799 13.4596 22.9783C13.5214 22.969 13.5831 22.959 13.6445 22.9485C13.651 22.9474 13.6576 22.9463 13.6641 22.9451C13.7281 22.9341 13.7919 22.9224 13.8555 22.91C13.86 22.9092 13.8644 22.9082 13.8689 22.9073C13.9325 22.8949 13.9958 22.8821 14.0589 22.8684C14.0605 22.8681 14.0621 22.8678 14.0637 22.8675C14.1254 22.8541 14.1869 22.84 14.2482 22.8254C14.2567 22.8234 14.2653 22.8214 14.2739 22.8194C14.3325 22.8053 14.3908 22.7907 14.449 22.7755C14.4604 22.7726 14.4718 22.7695 14.4832 22.7665C14.5412 22.7512 14.599 22.7355 14.6565 22.7192C14.6624 22.7175 14.6682 22.7158 14.674 22.7141C14.7322 22.6974 14.7902 22.6802 14.848 22.6625C14.8534 22.6608 14.8588 22.6592 14.8642 22.6576C14.9253 22.6387 14.9861 22.6192 15.0467 22.5991C15.0512 22.5976 15.0558 22.5962 15.0603 22.5947C15.3149 22.5101 15.5648 22.4152 15.8095 22.3106C15.8123 22.3094 15.8151 22.3083 15.8178 22.3071C15.9345 22.2571 16.05 22.2046 16.1643 22.1502C16.1727 22.1462 16.1812 22.1423 16.1896 22.1383C16.2413 22.1135 16.2927 22.0882 16.3438 22.0626C16.3546 22.0572 16.3654 22.0518 16.3761 22.0464C16.5475 21.9595 16.7158 21.8677 16.8812 21.7712C16.8869 21.7678 16.8927 21.7645 16.8985 21.7612C17.1243 21.6287 17.3442 21.4874 17.5578 21.3377C17.5634 21.3337 17.569 21.3298 17.5746 21.3259C17.6241 21.2911 17.6732 21.2557 17.722 21.22C17.728 21.2156 17.7339 21.2112 17.7399 21.2068C17.8407 21.1326 17.9401 21.0567 18.0379 20.9788C18.0422 20.9753 18.0467 20.9718 18.0511 20.9683C18.0995 20.9295 18.1476 20.8903 18.1953 20.8506C18.1994 20.8472 18.2034 20.8437 18.2075 20.8403C20.3338 19.0659 21.6867 16.3981 21.6867 13.4146V10.5696C21.6867 7.41796 20.1771 4.61853 17.8408 2.85248C17.8321 2.84591 17.8235 2.83933 17.8148 2.83279C17.7687 2.79825 17.7224 2.76411 17.6758 2.73037C17.6694 2.72574 17.6629 2.72117 17.6565 2.71655C17.5031 2.60613 17.3463 2.49997 17.1863 2.39848C17.1807 2.39495 17.1752 2.39137 17.1696 2.38784C16.8418 2.18088 16.5007 1.99307 16.1479 1.82587C16.1426 1.82337 16.1373 1.82091 16.132 1.81841C16.0763 1.79214 16.0204 1.76631 15.9641 1.74108C15.9594 1.73894 15.9546 1.73685 15.9498 1.73472C15.7733 1.6559 15.5939 1.58223 15.412 1.51384C15.4076 1.51219 15.4032 1.51056 15.3988 1.50892C15.2779 1.46367 15.1559 1.42064 15.0327 1.38014C15.0304 1.37937 15.0281 1.37867 15.0257 1.37791C14.9647 1.35788 14.9034 1.33848 14.8418 1.31963C14.8381 1.31852 14.8345 1.31741 14.8308 1.31629C14.6408 1.25842 14.4484 1.20622 14.2537 1.15988C14.2521 1.1595 14.2504 1.15916 14.2488 1.15877C14.1201 1.12822 13.9904 1.10014 13.8598 1.07477C13.8571 1.07424 13.8543 1.07371 13.8516 1.07318C13.786 1.0605 13.7201 1.04848 13.6541 1.03713C13.6531 1.03697 13.6522 1.03683 13.6512 1.03666C13.4521 1.00252 13.2509 0.974472 13.0479 0.952663C13.0438 0.952218 13.0396 0.951672 13.0355 0.951233C12.9715 0.944447 12.9074 0.938348 12.8431 0.932811C12.8347 0.932086 12.8262 0.931452 12.8178 0.930749C12.5482 0.908248 12.2755 0.8966 12.0001 0.8966Z" fill="white"/>
</svg>
