<svg width="548" height="64" viewBox="0 0 548 64" fill="none" xmlns="http://www.w3.org/2000/svg">
<path d="M26.0134 2.46094C40.3802 2.46095 52.0268 14.1198 52.0269 28.5016V35.5017C52.0269 49.8835 40.3802 61.5423 26.0134 61.5423C11.6467 61.5422 0 49.8835 0 35.5017V28.5016C0.000104756 14.1198 11.6468 2.46102 26.0134 2.46094Z" fill="white"/>
<path d="M26.0137 11.3918C26.3432 11.3918 26.6705 11.402 26.9954 11.4203V52.5436C26.6705 52.562 26.3432 52.5725 26.0137 52.5725C16.5626 52.5725 8.90117 44.9218 8.90117 35.4839V28.4804C8.90119 19.0426 16.5627 11.3918 26.0137 11.3918Z" fill="black"/>
<path fill-rule="evenodd" clip-rule="evenodd" d="M26.0134 2.46094C40.3802 2.46094 52.0268 14.1198 52.0269 28.5016V35.5017C52.0269 49.8835 40.3803 61.5423 26.0134 61.5423C11.6467 61.5422 0 49.8835 0 35.5017V28.5016C0.000105113 14.1198 11.6468 2.46102 26.0134 2.46094ZM26.0137 4.66812C12.8442 4.66815 2.16815 15.3293 2.16812 28.4804V35.4839C2.16812 48.635 12.8442 59.2961 26.0137 59.2962C26.3425 59.2962 26.6698 59.2894 26.9954 59.2762C27.0063 59.2758 27.0171 59.2747 27.028 59.2743C27.1895 59.2675 27.3507 59.2592 27.5114 59.2493C27.5148 59.2491 27.5182 59.2491 27.5216 59.2489C27.6832 59.2388 27.8443 59.227 28.005 59.2137C28.0234 59.2122 28.0418 59.2106 28.0602 59.209C28.5548 59.167 29.045 59.1098 29.5305 59.0382C29.5558 59.0344 29.5812 59.031 29.6065 59.0272C29.7587 59.0042 29.9104 58.9796 30.0617 58.9537C30.0778 58.951 30.0938 58.9483 30.1099 58.9455C30.2675 58.9183 30.4246 58.8895 30.5812 58.8591C30.5922 58.857 30.6031 58.8546 30.6141 58.8525C30.7705 58.8219 30.9265 58.7903 31.0819 58.7567C31.0858 58.7559 31.0897 58.7552 31.0936 58.7544C31.2455 58.7215 31.3968 58.6866 31.5477 58.6508C31.5688 58.6458 31.59 58.641 31.6111 58.6359C31.7553 58.6013 31.899 58.5653 32.0421 58.528C32.0702 58.5207 32.0982 58.5132 32.1263 58.5058C32.269 58.4681 32.4113 58.4295 32.553 58.3893C32.5674 58.3852 32.5817 58.3809 32.596 58.3767C32.7393 58.3357 32.8821 58.2933 33.0243 58.2497C33.0376 58.2456 33.0509 58.2417 33.0642 58.2376C33.2147 58.1911 33.3644 58.143 33.5136 58.0937C33.5247 58.0901 33.5358 58.0865 33.5469 58.0828C34.1737 57.8745 34.7889 57.6411 35.3914 57.3834C35.3982 57.3806 35.405 57.3778 35.4118 57.3749C35.6991 57.2517 35.9834 57.1226 36.2648 56.9886C36.2855 56.9788 36.3063 56.9692 36.327 56.9593C36.4542 56.8983 36.5807 56.8361 36.7067 56.7728C36.7332 56.7595 36.7597 56.7464 36.7862 56.733C37.208 56.5193 37.6225 56.2931 38.0294 56.0555C38.0436 56.0473 38.0579 56.0392 38.0721 56.0309C38.628 55.7049 39.1692 55.3569 39.6951 54.9883C39.7089 54.9787 39.7228 54.9691 39.7366 54.9594C39.8584 54.8736 39.9793 54.7867 40.0995 54.6987C40.1141 54.6879 40.1287 54.677 40.1433 54.6662C40.3915 54.4836 40.6362 54.2967 40.8769 54.1049C40.8877 54.0963 40.8986 54.0877 40.9094 54.0791C41.0287 53.9837 41.147 53.8871 41.2644 53.7894C41.2745 53.781 41.2845 53.7724 41.2946 53.764C46.529 49.396 49.8593 42.8285 49.8593 35.4839V28.4804C49.8592 20.7219 46.1432 13.8305 40.3919 9.48296C40.3705 9.46679 40.3491 9.45059 40.3277 9.43449C40.2144 9.34947 40.1004 9.2654 39.9856 9.18236C39.9698 9.17097 39.954 9.15969 39.9382 9.14834C39.5604 8.87652 39.1746 8.61518 38.7807 8.36534C38.7669 8.35664 38.7533 8.34782 38.7395 8.33915C37.9326 7.82967 37.093 7.36731 36.2244 6.95573C36.2114 6.94956 36.1983 6.9435 36.1853 6.93735C36.0482 6.87269 35.9104 6.8091 35.7719 6.74698C35.7602 6.74173 35.7484 6.73659 35.7367 6.73135C35.3021 6.53732 34.8606 6.35594 34.4128 6.18759C34.402 6.18352 34.3911 6.17952 34.3803 6.17547C34.0826 6.06409 33.7823 5.95816 33.4792 5.85846C33.4734 5.85658 33.4677 5.85485 33.4619 5.85298C33.3116 5.80367 33.1606 5.7559 33.009 5.70951C33 5.70676 32.991 5.70403 32.982 5.70129C32.5144 5.55882 32.0407 5.43031 31.5614 5.31625C31.5574 5.31529 31.5533 5.31447 31.5493 5.31351C31.2325 5.23831 30.9133 5.16917 30.5918 5.10673C30.585 5.10541 30.5782 5.10412 30.5714 5.10281C30.4099 5.07159 30.2478 5.04201 30.0852 5.01407C30.0829 5.01367 30.0805 5.01332 30.0782 5.01291C29.5881 4.92886 29.0928 4.85982 28.593 4.80613C28.5828 4.80504 28.5726 4.80369 28.5625 4.80261C28.405 4.78591 28.2471 4.77089 28.0888 4.75726C28.0681 4.75548 28.0473 4.75391 28.0266 4.75218C27.3629 4.69679 26.6916 4.66812 26.0137 4.66812Z" fill="black"/>
<path d="M269.295 52.6229C267.194 52.6229 265.253 52.2121 263.473 51.3906C261.729 50.5334 260.34 49.319 259.307 47.7473L260.002 46.3543V51.98H253.433V11.4219H260.429V28.6202L259.361 27.1736C260.358 25.602 261.711 24.3876 263.42 23.5304C265.129 22.6374 267.105 22.1909 269.348 22.1909C272.09 22.1909 274.564 22.8696 276.772 24.2269C278.979 25.5842 280.724 27.4058 282.006 29.6918C283.323 31.9777 283.982 34.5495 283.982 37.4069C283.982 40.2287 283.341 42.8004 282.059 45.1221C280.777 47.4437 279.033 49.2832 276.825 50.6405C274.618 51.9621 272.107 52.6229 269.295 52.6229ZM268.494 46.1936C270.096 46.1936 271.52 45.8186 272.766 45.0685C274.012 44.3184 274.974 43.2826 275.65 41.961C276.362 40.6394 276.718 39.1214 276.718 37.4069C276.718 35.6924 276.362 34.1923 275.65 32.9064C274.974 31.5848 274.012 30.549 272.766 29.7989C271.52 29.0131 270.096 28.6202 268.494 28.6202C266.963 28.6202 265.574 28.9953 264.328 29.7453C263.117 30.4954 262.156 31.5491 261.444 32.9064C260.767 34.228 260.429 35.7282 260.429 37.4069C260.429 39.1214 260.767 40.6394 261.444 41.961C262.156 43.2826 263.117 44.3184 264.328 45.0685C265.574 45.8186 266.963 46.1936 268.494 46.1936Z" fill="black"/>
<path d="M234.929 52.6229C232.686 52.6229 230.727 52.1228 229.054 51.1227C227.416 50.1226 226.152 48.7296 225.262 46.9437C224.407 45.1578 223.98 43.0682 223.98 40.6751V22.8338H230.977V40.0858C230.977 41.3002 231.208 42.3717 231.671 43.3004C232.169 44.1934 232.864 44.9077 233.754 45.4435C234.679 45.9436 235.712 46.1936 236.851 46.1936C237.991 46.1936 239.005 45.9436 239.896 45.4435C240.786 44.9077 241.48 44.1755 241.978 43.2468C242.477 42.3182 242.726 41.2109 242.726 39.925V22.8338H249.722V51.9799H243.1V46.2472L243.687 47.2651C243.011 49.051 241.889 50.3905 240.323 51.2834C238.792 52.1764 236.994 52.6229 234.929 52.6229Z" fill="black"/>
<path d="M213.842 51.98V11.4219H220.838V51.98H213.842Z" fill="black"/>
<path d="M198.003 52.623C195.119 52.623 192.52 51.9622 190.205 50.6406C187.927 49.2833 186.128 47.4617 184.811 45.1757C183.494 42.854 182.835 40.2466 182.835 37.3534C182.835 34.4602 183.494 31.8707 184.811 29.5847C186.128 27.2987 187.927 25.495 190.205 24.1734C192.52 22.8518 195.119 22.191 198.003 22.191C200.068 22.191 201.99 22.5661 203.771 23.3161C205.551 24.0305 207.082 25.0306 208.364 26.3165C209.681 27.5666 210.625 29.0668 211.194 30.817L205.052 33.4958C204.518 32.0314 203.61 30.8527 202.329 29.9597C201.083 29.0668 199.641 28.6203 198.003 28.6203C196.472 28.6203 195.101 28.9953 193.89 29.7454C192.715 30.4955 191.79 31.5313 191.113 32.8529C190.437 34.1745 190.098 35.6925 190.098 37.407C190.098 39.1215 190.437 40.6395 191.113 41.9611C191.79 43.2826 192.715 44.3185 193.89 45.0686C195.101 45.8186 196.472 46.1937 198.003 46.1937C199.676 46.1937 201.136 45.7472 202.382 44.8543C203.628 43.9613 204.518 42.7647 205.052 41.2646L211.194 44.0506C210.625 45.6936 209.699 47.1759 208.417 48.4975C207.135 49.7834 205.604 50.8013 203.824 51.5514C202.044 52.2658 200.103 52.623 198.003 52.623Z" fill="black"/>
<path d="M166.354 51.9799V22.8338H172.923V29.3166L172.389 28.3522C173.065 26.1734 174.116 24.6554 175.54 23.7981C177 22.9409 178.744 22.5123 180.774 22.5123H182.483V28.7273H179.973C177.979 28.7273 176.377 29.3523 175.166 30.6025C173.956 31.8169 173.35 33.5314 173.35 35.7459V51.9799H166.354Z" fill="black"/>
<path d="M149.324 52.623C146.333 52.623 143.716 51.9443 141.473 50.587C139.23 49.2297 137.485 47.3902 136.239 45.0686C134.993 42.7469 134.37 40.1752 134.37 37.3534C134.37 34.4245 134.993 31.8349 136.239 29.5847C137.521 27.2987 139.247 25.495 141.419 24.1734C143.627 22.8518 146.084 22.191 148.789 22.191C151.068 22.191 153.062 22.5661 154.771 23.3161C156.516 24.0662 157.993 25.1021 159.204 26.4236C160.414 27.7452 161.34 29.2632 161.981 30.9777C162.622 32.6565 162.942 34.4781 162.942 36.4426C162.942 36.9427 162.907 37.4606 162.836 37.9963C162.8 38.5321 162.711 38.9965 162.569 39.3894H140.137V34.0316H158.616L155.305 36.5498C155.626 34.9067 155.537 33.4423 155.038 32.1564C154.575 30.8705 153.792 29.8526 152.688 29.1025C151.62 28.3524 150.32 27.9774 148.789 27.9774C147.33 27.9774 146.03 28.3524 144.891 29.1025C143.751 29.8169 142.879 30.8884 142.274 32.3171C141.704 33.7102 141.49 35.4068 141.633 37.407C141.49 39.1929 141.722 40.7824 142.327 42.1754C142.968 43.5327 143.894 44.5864 145.104 45.3364C146.351 46.0865 147.775 46.4616 149.377 46.4616C150.979 46.4616 152.332 46.1222 153.436 45.4436C154.575 44.765 155.465 43.8541 156.106 42.7112L161.767 45.4972C161.198 46.8902 160.308 48.1225 159.097 49.194C157.887 50.2656 156.445 51.1049 154.771 51.7122C153.133 52.3194 151.317 52.623 149.324 52.623Z" fill="black"/>
<path d="M121.06 52.0448V29.1673H115.933V22.8987H121.06V21.9343C121.06 19.7198 121.505 17.8446 122.395 16.3087C123.321 14.7371 124.603 13.5405 126.241 12.719C127.879 11.8975 129.819 11.4867 132.062 11.4867C132.489 11.4867 132.952 11.5225 133.451 11.5939C133.985 11.6296 134.43 11.6832 134.786 11.7546V17.8089C134.43 17.7374 134.092 17.7017 133.771 17.7017C133.486 17.666 133.219 17.6481 132.97 17.6481C131.403 17.6481 130.193 18.0053 129.338 18.7197C128.484 19.3983 128.057 20.4699 128.057 21.9343V22.8987H136.395L132.062 29.1673H128.057V52.0448H121.06Z" fill="black"/>
<path d="M104.02 52.0448V29.1673H98.8933V22.8987H104.02V21.9343C104.02 19.7198 104.465 17.8446 105.356 16.3087C106.281 14.7371 107.563 13.5405 109.201 12.719C110.839 11.8975 112.779 11.4867 115.022 11.4867C115.45 11.4867 115.912 11.5225 116.411 11.5939C116.945 11.6296 117.39 11.6832 117.746 11.7546V17.8089C117.39 17.7374 117.052 17.7017 116.731 17.7017C116.447 17.666 116.179 17.6481 115.93 17.6481C114.364 17.6481 113.153 18.0053 112.299 18.7197C111.444 19.3983 111.017 20.4699 111.017 21.9343V22.8987H117.479V29.1673H111.017V52.0448H104.02Z" fill="black"/>
<path d="M83.4076 52.623C80.5592 52.623 77.96 51.9622 75.6101 50.6406C73.2958 49.319 71.4443 47.5153 70.0557 45.2293C68.7027 42.9433 68.0262 40.3359 68.0262 37.407C68.0262 34.4781 68.7027 31.8707 70.0557 29.5847C71.4443 27.2987 73.2958 25.495 75.6101 24.1734C77.9244 22.8518 80.5236 22.191 83.4076 22.191C86.2559 22.191 88.8373 22.8518 91.1516 24.1734C93.4659 25.495 95.2996 27.2987 96.6526 29.5847C98.0412 31.8349 98.7355 34.4424 98.7355 37.407C98.7355 40.3359 98.0412 42.9433 96.6526 45.2293C95.264 47.5153 93.4125 49.319 91.0982 50.6406C88.7839 51.9622 86.2203 52.623 83.4076 52.623ZM83.4076 46.1937C84.9742 46.1937 86.345 45.8186 87.5199 45.0686C88.7305 44.3185 89.674 43.2826 90.3505 41.9611C91.0626 40.6038 91.4187 39.0858 91.4187 37.407C91.4187 35.6925 91.0626 34.1923 90.3505 32.9065C89.674 31.5849 88.7305 30.5491 87.5199 29.799C86.345 29.0132 84.9742 28.6203 83.4076 28.6203C81.8053 28.6203 80.3989 29.0132 79.1884 29.799C77.9778 30.5491 77.0165 31.5849 76.3044 32.9065C75.6279 34.1923 75.2896 35.6925 75.2896 37.407C75.2896 39.0858 75.6279 40.6038 76.3044 41.9611C77.0165 43.2826 77.9778 44.3185 79.1884 45.0686C80.3989 45.8186 81.8053 46.1937 83.4076 46.1937Z" fill="black"/>
<path d="M539.301 50.9726C537.988 50.9726 536.74 50.8085 535.559 50.4803C534.41 50.1192 533.343 49.6269 532.358 49.0032C531.374 48.3468 530.52 47.5754 529.798 46.6892L532.654 43.8336C533.507 44.884 534.492 45.6717 535.608 46.1969C536.724 46.6892 537.971 46.9354 539.35 46.9354C540.728 46.9354 541.795 46.7056 542.55 46.2461C543.305 45.7538 543.682 45.0809 543.682 44.2275C543.682 43.3741 543.371 42.7176 542.747 42.2581C542.156 41.7658 541.385 41.3719 540.433 41.0765C539.481 40.7483 538.464 40.4364 537.38 40.141C536.33 39.8128 535.329 39.4025 534.377 38.9102C533.425 38.4178 532.637 37.745 532.014 36.8916C531.423 36.0382 531.128 34.9058 531.128 33.4944C531.128 32.083 531.472 30.8685 532.162 29.851C532.851 28.8007 533.803 27.9965 535.017 27.4385C536.264 26.8806 537.758 26.6016 539.497 26.6016C541.336 26.6016 542.96 26.9298 544.372 27.5863C545.816 28.2099 546.998 29.1618 547.917 30.4419L545.061 33.2975C544.405 32.4441 543.584 31.7876 542.599 31.3281C541.647 30.8685 540.564 30.6388 539.35 30.6388C538.07 30.6388 537.085 30.8685 536.396 31.3281C535.739 31.7548 535.411 32.362 535.411 33.1497C535.411 33.9375 535.706 34.5447 536.297 34.9714C536.888 35.3981 537.659 35.7592 538.611 36.0546C539.596 36.35 540.613 36.6618 541.664 36.99C542.714 37.2854 543.715 37.6957 544.667 38.2209C545.619 38.7461 546.39 39.4518 546.981 40.338C547.605 41.2242 547.917 42.3894 547.917 43.8336C547.917 46.0328 547.129 47.7724 545.553 49.0525C544.011 50.3326 541.926 50.9726 539.301 50.9726Z" fill="#888888"/>
<path d="M514.111 50.4803V27.0939H518.542V50.4803H514.111ZM518.542 37.1377L516.868 36.3992C516.868 33.4123 517.557 31.0327 518.936 29.2602C520.314 27.4878 522.3 26.6016 524.893 26.6016C526.075 26.6016 527.142 26.8149 528.094 27.2416C529.045 27.6355 529.932 28.3084 530.752 29.2602L527.847 32.2635C527.355 31.7384 526.813 31.3609 526.223 31.1311C525.632 30.9014 524.943 30.7865 524.155 30.7865C522.514 30.7865 521.168 31.3117 520.118 32.362C519.067 33.4123 518.542 35.0042 518.542 37.1377Z" fill="#888888"/>
<path d="M500.023 50.9726C497.693 50.9726 495.592 50.4475 493.721 49.3971C491.85 48.314 490.373 46.8533 489.29 45.0153C488.207 43.1772 487.666 41.0929 487.666 38.7625C487.666 36.4649 488.191 34.397 489.241 32.5589C490.324 30.7208 491.768 29.2766 493.574 28.2263C495.412 27.1431 497.463 26.6016 499.728 26.6016C501.894 26.6016 503.798 27.0939 505.439 28.0786C507.113 29.0633 508.41 30.4254 509.329 32.1651C510.281 33.9047 510.756 35.8741 510.756 38.0732C510.756 38.4014 510.74 38.7625 510.707 39.1564C510.674 39.5174 510.609 39.9441 510.51 40.4364H490.767V36.7439H508.147L506.522 38.1717C506.522 36.5962 506.243 35.2668 505.685 34.1837C505.127 33.0677 504.34 32.2143 503.322 31.6235C502.305 30.9998 501.074 30.688 499.629 30.688C498.12 30.688 496.79 31.0163 495.642 31.6727C494.493 32.3292 493.606 33.2482 492.983 34.4298C492.359 35.6115 492.047 37.0064 492.047 38.6148C492.047 40.2559 492.376 41.7001 493.032 42.9474C493.689 44.1619 494.624 45.1137 495.838 45.803C497.053 46.4595 498.448 46.7877 500.023 46.7877C501.336 46.7877 502.534 46.5579 503.617 46.0984C504.733 45.6389 505.685 44.9496 506.473 44.0306L509.329 46.9354C508.213 48.2483 506.834 49.2494 505.193 49.9387C503.585 50.628 501.861 50.9726 500.023 50.9726Z" fill="#888888"/>
<path d="M474.321 50.9726C472.549 50.9726 470.941 50.6116 469.496 49.8895C468.085 49.1345 466.953 48.1006 466.099 46.7877C465.246 45.4748 464.77 43.9813 464.671 42.3074V35.2668C464.77 33.56 465.246 32.0666 466.099 30.7865C466.985 29.4736 468.134 28.4561 469.546 27.734C470.99 26.979 472.582 26.6016 474.321 26.6016C476.455 26.6016 478.375 27.1431 480.082 28.2263C481.821 29.3095 483.184 30.7701 484.168 32.6082C485.153 34.4463 485.645 36.5141 485.645 38.8117C485.645 41.1093 485.153 43.1772 484.168 45.0153C483.184 46.8533 481.821 48.314 480.082 49.3971C478.375 50.4475 476.455 50.9726 474.321 50.9726ZM462.013 60.2779V27.0939H466.444V33.2482L465.607 38.9102L466.444 44.6214V60.2779H462.013ZM473.583 46.7877C475.06 46.7877 476.356 46.4431 477.472 45.7538C478.588 45.0645 479.475 44.129 480.131 42.9474C480.788 41.733 481.116 40.338 481.116 38.7625C481.116 37.2198 480.788 35.8412 480.131 34.6268C479.475 33.4123 478.588 32.4769 477.472 31.8204C476.356 31.1311 475.076 30.7865 473.632 30.7865C472.155 30.7865 470.859 31.1311 469.743 31.8204C468.627 32.4769 467.757 33.4123 467.133 34.6268C466.51 35.8412 466.198 37.2362 466.198 38.8117C466.198 40.3544 466.493 41.733 467.084 42.9474C467.708 44.129 468.577 45.0645 469.693 45.7538C470.842 46.4431 472.139 46.7877 473.583 46.7877Z" fill="#888888"/>
<path d="M446.287 50.9726C443.989 50.9726 441.922 50.431 440.083 49.3479C438.245 48.2647 436.785 46.8041 435.702 44.966C434.618 43.0951 434.077 41.0109 434.077 38.7132C434.077 36.4485 434.618 34.4134 435.702 32.6082C436.785 30.7701 438.245 29.3095 440.083 28.2263C441.922 27.1431 443.989 26.6016 446.287 26.6016C448.552 26.6016 450.603 27.1431 452.441 28.2263C454.312 29.2766 455.789 30.7208 456.872 32.5589C457.956 34.397 458.497 36.4485 458.497 38.7132C458.497 41.0109 457.956 43.0951 456.872 44.966C455.789 46.8041 454.312 48.2647 452.441 49.3479C450.603 50.431 448.552 50.9726 446.287 50.9726ZM446.287 46.6892C447.764 46.6892 449.077 46.3446 450.226 45.6553C451.375 44.966 452.277 44.0306 452.934 42.8489C453.59 41.6345 453.918 40.2559 453.918 38.7132C453.918 37.2034 453.574 35.8576 452.884 34.676C452.228 33.4944 451.325 32.5753 450.177 31.9189C449.061 31.2296 447.764 30.885 446.287 30.885C444.81 30.885 443.497 31.2296 442.348 31.9189C441.199 32.5753 440.297 33.4944 439.64 34.676C438.984 35.8576 438.656 37.2034 438.656 38.7132C438.656 40.2559 438.984 41.6345 439.64 42.8489C440.297 44.0306 441.199 44.966 442.348 45.6553C443.497 46.3446 444.81 46.6892 446.287 46.6892Z" fill="#888888"/>
<path d="M426.166 50.4776V15.3242H430.597V50.4776H426.166Z" fill="#888888"/>
<path d="M412.078 50.9726C409.748 50.9726 407.647 50.4475 405.776 49.3971C403.905 48.314 402.428 46.8533 401.345 45.0153C400.262 43.1772 399.72 41.0929 399.72 38.7625C399.72 36.4649 400.246 34.397 401.296 32.5589C402.379 30.7208 403.823 29.2766 405.629 28.2263C407.467 27.1431 409.518 26.6016 411.783 26.6016C413.949 26.6016 415.853 27.0939 417.494 28.0786C419.168 29.0633 420.465 30.4254 421.384 32.1651C422.335 33.9047 422.811 35.8741 422.811 38.0732C422.811 38.4014 422.795 38.7625 422.762 39.1564C422.729 39.5174 422.664 39.9441 422.565 40.4364H402.822V36.7439H420.202L418.577 38.1717C418.577 36.5962 418.298 35.2668 417.74 34.1837C417.182 33.0677 416.395 32.2143 415.377 31.6235C414.36 30.9998 413.129 30.688 411.684 30.688C410.175 30.688 408.845 31.0163 407.696 31.6727C406.548 32.3292 405.661 33.2482 405.038 34.4298C404.414 35.6115 404.102 37.0064 404.102 38.6148C404.102 40.2559 404.431 41.7001 405.087 42.9474C405.743 44.1619 406.679 45.1137 407.893 45.803C409.108 46.4595 410.503 46.7877 412.078 46.7877C413.391 46.7877 414.589 46.5579 415.672 46.0984C416.788 45.6389 417.74 44.9496 418.528 44.0306L421.384 46.9354C420.268 48.2483 418.889 49.2494 417.248 49.9387C415.64 50.628 413.916 50.9726 412.078 50.9726Z" fill="#888888"/>
<path d="M386.516 50.4762L375.783 27.0898H380.707L389.323 46.8329H386.467L395.132 27.0898H399.859L389.126 50.4762H386.516Z" fill="#888888"/>
<path d="M364.788 50.9726C362.458 50.9726 360.357 50.4475 358.486 49.3971C356.615 48.314 355.138 46.8533 354.055 45.0153C352.972 43.1772 352.43 41.0929 352.43 38.7625C352.43 36.4649 352.956 34.397 354.006 32.5589C355.089 30.7208 356.533 29.2766 358.338 28.2263C360.177 27.1431 362.228 26.6016 364.493 26.6016C366.659 26.6016 368.563 27.0939 370.204 28.0786C371.878 29.0633 373.174 30.4254 374.094 32.1651C375.045 33.9047 375.521 35.8741 375.521 38.0732C375.521 38.4014 375.505 38.7625 375.472 39.1564C375.439 39.5174 375.374 39.9441 375.275 40.4364H355.532V36.7439H372.912L371.287 38.1717C371.287 36.5962 371.008 35.2668 370.45 34.1837C369.892 33.0677 369.104 32.2143 368.087 31.6235C367.069 30.9998 365.839 30.688 364.394 30.688C362.884 30.688 361.555 31.0163 360.406 31.6727C359.258 32.3292 358.371 33.2482 357.748 34.4298C357.124 35.6115 356.812 37.0064 356.812 38.6148C356.812 40.2559 357.14 41.7001 357.797 42.9474C358.453 44.1619 359.389 45.1137 360.603 45.803C361.818 46.4595 363.213 46.7877 364.788 46.7877C366.101 46.7877 367.299 46.5579 368.382 46.0984C369.498 45.6389 370.45 44.9496 371.238 44.0306L374.094 46.9354C372.978 48.2483 371.599 49.2494 369.958 49.9387C368.35 50.628 366.626 50.9726 364.788 50.9726Z" fill="#888888"/>
<path d="M336.674 50.97C334.507 50.97 332.571 50.4448 330.864 49.3945C329.157 48.3113 327.795 46.8507 326.778 45.0126C325.793 43.1745 325.301 41.1067 325.301 38.8091C325.301 36.5115 325.793 34.4436 326.778 32.6055C327.795 30.7674 329.157 29.3068 330.864 28.2236C332.571 27.1405 334.507 26.5989 336.674 26.5989C338.413 26.5989 339.989 26.9764 341.4 27.7313C342.812 28.4534 343.944 29.4709 344.797 30.7838C345.684 32.0639 346.176 33.5574 346.275 35.2642V42.3047C346.176 43.9787 345.7 45.4721 344.847 46.785C343.993 48.098 342.861 49.1319 341.45 49.8868C340.038 50.6089 338.446 50.97 336.674 50.97ZM337.412 46.785C338.889 46.785 340.169 46.4404 341.253 45.7511C342.369 45.0618 343.238 44.1264 343.862 42.9448C344.486 41.7303 344.797 40.3517 344.797 38.8091C344.797 37.2007 344.469 35.8058 343.813 34.6241C343.189 33.4425 342.319 32.5071 341.203 31.8178C340.12 31.1285 338.84 30.7838 337.363 30.7838C335.886 30.7838 334.59 31.1285 333.474 31.8178C332.358 32.5071 331.471 33.4589 330.815 34.6734C330.191 35.855 329.879 37.2171 329.879 38.7598C329.879 40.3353 330.191 41.7303 330.815 42.9448C331.471 44.1264 332.358 45.0618 333.474 45.7511C334.622 46.4404 335.935 46.785 337.412 46.785ZM348.982 50.4776H344.502V44.1756L345.339 38.4644L344.502 32.8025V15.3242H348.982V50.4776Z" fill="#888888"/>
<rect x="303.675" width="2.46172" height="64" fill="#CCCCCC"/>
</svg>
